<svg id="visual" viewBox="0 0 900 600" width="900" height="600" xmlns="http://www.w3.org/2000/svg" xmlns:xlink="http://www.w3.org/1999/xlink" version="1.1"><rect x="0" y="0" width="900" height="600" fill="#AF7F5E"></rect><path d="M0 307L30 295.7C60 284.3 120 261.7 180 265.3C240 269 300 299 360 322.3C420 345.7 480 362.3 540 374C600 385.7 660 392.3 720 375.8C780 359.3 840 319.7 870 299.8L900 280L900 601L870 601C840 601 780 601 720 601C660 601 600 601 540 601C480 601 420 601 360 601C300 601 240 601 180 601C120 601 60 601 30 601L0 601Z" fill="#D5BBAA" stroke-linecap="round" stroke-linejoin="miter"></path></svg>